/* XPM */
static char *X_swoosh_logo_32x32x16.ico[] = {
/* width height num_colors chars_per_pixel */
"    32    32       16            1",
/* colors */
"` c #080708",
". c #929292",
"# c #fbd081",
"a c #997651",
"b c #fbfcf9",
"c c #ee8f55",
"d c #504e4a",
"e c #e6d2c3",
"f c #d1a66a",
"g c #ec5421",
"h c #b0afae",
"i c #302e2a",
"j c #717171",
"k c #f07139",
"l c #f9b06d",
"m c #b49264",
/* pixels */
"bbbbbbbbbbbbbbbbbbbbbbbbbbbbbbbb",
"bbbbbebeebebbbbbbbbbbbbbbbebbbbb",
"bbbbei````ibbbbbbbbbbbbbeiiebbbb",
"bbbbb.`````.bbbbbbbbbbbbj`hbbbbb",
"bbbbbbi`````ebbbbbbbbbbe`dbbbbbb",
"bbbbbbe`````jbbbbbbbbbbiiebbbbbb",
"bbbbbbbd`````hbbbbbbbb.`jbbbbbbb",
"bbbbbbbei````deleeeeee`dbbbbbbbb",
"bbbbbbbbj`````acebbb#d`hbbbbbbbb",
"bbbbbbblci````ifbbbbh`je#bbbbbbb",
"bbbbbbkgkm`````debbeiiebb#bbbbbb",
"bbbbekgkebd`````fbbj`hbbbb#bbbbb",
"bbbbkggebbe`````dbhidbbbbbb#bbbb",
"bbbcggcbbbbj`````.d`ebbbbbbb#bbb",
"bbbgggbbbbbei````j`jbbbbbbbb#bbb",
"bbcggcbbbbbb.```jiibbbbbbbbbb#bb",
"bbkgglbbbbbbbd`id`iebbbbbbbbb#bb",
"bbgggebbbbbbbd`j```dbbbbbbbbb#bb",
"bbgggebbbbbb.`ji````hbbbbbbbb#bb",
"bbgggebbbbbbiihi````dbbbbbbbb#bb",
"bbggglbbbbbj`.b.`````.bbbbbbb#bb",
"bbcggcbbbbh`dbbei````iebbbbbblbb",
"bblgkgebbbd`ebbbh`````jbbbbb##bb",
"bbbkgkcbb.`jbbbbbj`````ebbbe#bbb",
"bbb#kgkleiibbbbbbe`````dbbb##bbb",
"bbbblkkka`hbbbbbbbj`````.bl#bbbb",
"bbbbbckkkkebbbbbbbbi````a##bbbbb",
"bbbbbblkccclbbbbbbbh`idflfbbbbbb",
"bbbbbbjicccccl##ee##mflmdiebbbbb",
"bbbbbe`deblllcllll#l#ad```dbbbbb",
"bbbbbjdebbbbbbbbbbbbb.ididdebbbb",
"bbbbbbbbbbbbbbbbbbbbbbbbbbbbbbbb"
};
