/* XPM */
static char * X_Transparent_xpm[] = {
"32 32 278 2",
"  	c None",
". 	c #1B1B1B",
"+ 	c #010101",
"@ 	c #000000",
"# 	c #3B3B3B",
"$ 	c #272727",
"% 	c #1D1D1D",
"& 	c #848484",
"* 	c #070707",
"= 	c #030303",
"- 	c #575757",
"; 	c #424242",
"> 	c #0B0B0B",
", 	c #878787",
"' 	c #2F2F2F",
") 	c #222222",
"! 	c #B5B5B5",
"~ 	c #101010",
"{ 	c #111111",
"] 	c #000001",
"^ 	c #010000",
"/ 	c #3B3B3C",
"( 	c #3A3A3B",
"_ 	c #161616",
": 	c #4A4849",
"< 	c #010202",
"[ 	c #8A8989",
"} 	c #5F5F60",
"| 	c #0A090A",
"1 	c #6F6E70",
"2 	c #1E1F1F",
"3 	c #010001",
"4 	c #010100",
"5 	c #000101",
"6 	c #292828",
"7 	c #ACA39C",
"8 	c #30302F",
"9 	c #7D726F",
"0 	c #060506",
"a 	c #060606",
"b 	c #926E59",
"c 	c #F4905A",
"d 	c #FCDBC0",
"e 	c #EFC9A7",
"f 	c #5C534E",
"g 	c #141312",
"h 	c #8E7C66",
"i 	c #F69B7E",
"j 	c #E28161",
"k 	c #352A27",
"l 	c #2A2625",
"m 	c #DCA383",
"n 	c #0B0B0C",
"o 	c #595755",
"p 	c #F8D2A7",
"q 	c #FCCB91",
"r 	c #F1744F",
"s 	c #ED5321",
"t 	c #F06A3A",
"u 	c #9E7E73",
"v 	c #0D0D0D",
"w 	c #000100",
"x 	c #010102",
"y 	c #6C5B50",
"z 	c #F5CBB1",
"A 	c #282828",
"B 	c #202020",
"C 	c #FCCC8D",
"D 	c #FEDEAE",
"E 	c #F0724C",
"F 	c #ED4F1D",
"G 	c #F06232",
"H 	c #F9BBA3",
"I 	c #383838",
"J 	c #010002",
"K 	c #171614",
"L 	c #BFA492",
"M 	c #515253",
"N 	c #0C0C0C",
"O 	c #828282",
"P 	c #FDD397",
"Q 	c #F06D46",
"R 	c #EC4D1B",
"S 	c #EE5A29",
"T 	c #181919",
"U 	c #4A4542",
"V 	c #131211",
"W 	c #434343",
"X 	c #FCCC7C",
"Y 	c #F28B6E",
"Z 	c #ED4C1C",
"` 	c #ED4F1B",
" .	c #F39170",
"..	c #4B4C4B",
"+.	c #030305",
"@.	c #09090A",
"#.	c #919191",
"$.	c #3E3E3E",
"%.	c #141414",
"&.	c #FECF7B",
"*.	c #ED5326",
"=.	c #EB4C1A",
"-.	c #EF6133",
";.	c #292A2A",
">.	c #1F201F",
",.	c #6E6E6F",
"'.	c #636362",
").	c #FED280",
"!.	c #FEDFA5",
"~.	c #F49378",
"{.	c #EC4A1A",
"].	c #ED4E1C",
"^.	c #F18560",
"/.	c #6F6F6F",
"(.	c #090909",
"_.	c #6C6C6C",
":.	c #303030",
"<.	c #FED17B",
"[.	c #EF663F",
"}.	c #ED4B1A",
"|.	c #EC501C",
"1.	c #F5916E",
"2.	c #292929",
"3.	c #3F3F3F",
"4.	c #FDCD6D",
"5.	c #ED4F21",
"6.	c #ED4E1B",
"7.	c #EE5320",
"8.	c #F8BAA3",
"9.	c #747474",
"0.	c #0E0E0E",
"a.	c #474747",
"b.	c #FDD37D",
"c.	c #ED4C1A",
"d.	c #ED501D",
"e.	c #EE5520",
"f.	c #F9C0AC",
"g.	c #7D7D7D",
"h.	c #5C5C5C",
"i.	c #363636",
"j.	c #FED483",
"k.	c #ED521D",
"l.	c #ED561F",
"m.	c #F7AE94",
"n.	c #1C1C1C",
"o.	c #A0A0A0",
"p.	c #242424",
"q.	c #313131",
"r.	c #FDD076",
"s.	c #EE5A2A",
"t.	c #EF551F",
"u.	c #EE5921",
"v.	c #F59169",
"w.	c #4F4F4F",
"x.	c #0A0A0A",
"y.	c #606060",
"z.	c #535353",
"A.	c #767676",
"B.	c #FDC85E",
"C.	c #F2794E",
"D.	c #EE5720",
"E.	c #EE5B21",
"F.	c #F4875B",
"G.	c #A4A4A4",
"H.	c #151515",
"I.	c #484848",
"J.	c #373737",
"K.	c #1E1E1E",
"L.	c #FEDD9D",
"M.	c #FEC760",
"N.	c #F7A184",
"O.	c #EF5B23",
"P.	c #F05F23",
"Q.	c #F0672A",
"R.	c #F8BA9C",
"S.	c #2C2C2C",
"T.	c #737373",
"U.	c #020202",
"V.	c #5A5A5A",
"W.	c #FDD27B",
"X.	c #FED890",
"Y.	c #F1713F",
"Z.	c #F06125",
"`.	c #F16526",
" +	c #F4844E",
".+	c #353535",
"++	c #121212",
"@+	c #FFD484",
"#+	c #FEC85F",
"$+	c #FFE5B1",
"%+	c #F6A585",
"&+	c #F1672A",
"*+	c #F16829",
"=+	c #F16D2B",
"-+	c #F79A68",
";+	c #333333",
">+	c #1A1A1A",
",+	c #454545",
"'+	c #FECA64",
")+	c #FED47F",
"!+	c #F49468",
"~+	c #F26E2E",
"{+	c #F2712C",
"]+	c #F37933",
"^+	c #AB6131",
"/+	c #261912",
"(+	c #757575",
"_+	c #595A59",
":+	c #040404",
"<+	c #0A0A0B",
"[+	c #605E59",
"}+	c #FEE3AB",
"|+	c #FEC964",
"1+	c #FDCD6E",
"2+	c #F69F73",
"3+	c #F27531",
"4+	c #F3782F",
"5+	c #EF7C30",
"6+	c #C97940",
"7+	c #2B2B2B",
"8+	c #120E07",
"9+	c #957A44",
"0+	c #FECA65",
"a+	c #E29A70",
"b+	c #DE7330",
"c+	c #F48133",
"d+	c #F58736",
"e+	c #F89142",
"f+	c #FAB980",
"g+	c #FBC590",
"h+	c #5E5E5D",
"i+	c #16130E",
"j+	c #2F240F",
"k+	c #785C27",
"l+	c #D5A446",
"m+	c #EDB94D",
"n+	c #C5A364",
"o+	c #5D5A58",
"p+	c #3F2513",
"q+	c #D28149",
"r+	c #F69347",
"s+	c #F7903D",
"t+	c #F7953F",
"u+	c #F8A14F",
"v+	c #FAB267",
"w+	c #FAB96E",
"x+	c #FCC788",
"y+	c #FCD19C",
"z+	c #FDD6A0",
"A+	c #FCD497",
"B+	c #F2C479",
"C+	c #C79849",
"D+	c #DCA747",
"E+	c #EAB34C",
"F+	c #BD923E",
"G+	c #503C1C",
"H+	c #201E1A",
"I+	c #131313",
"J+	c #454445",
"K+	c #FABF8E",
"L+	c #F9AE69",
"M+	c #F9A34D",
"N+	c #F9A245",
"O+	c #FAA646",
"P+	c #FAAB48",
"Q+	c #FBB04A",
"R+	c #FBB44D",
"S+	c #FCB74F",
"T+	c #FDBF59",
"U+	c #F4C368",
"V+	c #A27D3D",
"W+	c #4C3B19",
"X+	c #0E0B06",
"Y+	c #4E4E4F",
"Z+	c #343434",
"`+	c #050505",
" @	c #8E8E8E",
".@	c #4E4B46",
"                                                                ",
"                                                                ",
"          . + @ @ @ #                             $ %           ",
"          & * @ @ @ = -                         ; > ,           ",
"            ' @ @ @ @ ) !                       ~ ;             ",
"              { ] ^ ] + /                     ( _               ",
"              : < ] ] @ { [                 } | 1               ",
"                2 3 4 ] 5 6               7 . 8                 ",
"                9 0 @ ] ] a b c       d e f g h                 ",
"              i j k 4 ] ] ] l m           n o p q               ",
"            r s t u v w ] w x y z       A B       C D           ",
"          E F G H   I + w @ J K L     M N O         P           ",
"        Q R S         T ] 5 @ ^ U     V W             X         ",
"      Y Z `  .        ..+.3 @ ] @.#.$.%.                &.      ",
"      *.=.-.            ;.3 ] @ >.,.> '.                ).!.    ",
"    ~.{.].^.            /.(.@ * _.) :.                    <.    ",
"    [.}.|.1.              2.@ 3.- + B                     4.    ",
"    5.6.7.8.              I %.9.0.@ @ a.                  b.    ",
"    c.d.e.f.            g.v h.i.@ @ @ {                   j.    ",
"    ].k.l.m.            n.A o.p.@ @ @ @ q.                r.    ",
"    s.t.u.v.          w.x.y.  z.a @ @ @ a A.              B.    ",
"    C.D.E.F.        G.H.I.      J.@ @ @ @ K.            L.M.    ",
"    N.O.P.Q.R.      S._         T.v @ @ @ U.V.          W.X.    ",
"      Y.Z.`. +    _.x.I.          .++ @ @ @ ++        @+#+$+    ",
"      %+&+*+=+-+  B ;+              >+@ @ @ @ ,+      '+)+      ",
"        !+~+{+]+^+/+(+              _+:+@ ] 3 <+[+}+|+1+        ",
"          2+3+4+5+6+                  7+4 J + 8+9+0+r.          ",
"            a+b+c+d+e+f+g+            h+i+j+k+l+m+n+            ",
"            o+p+q+r+s+t+u+v+w+x+y+z+A+B+C+D+E+F+G+H+            ",
"            I+J+    K+L+M+N+O+P+Q+R+S+T+U+V+W+X+@ + Y+          ",
"          Z+`+ @                          .@4 @ @ @ N           ",
"                                                                "};
